<?xml version="1.0" encoding="UTF-8"?>
<svg id="_レイヤー_2" data-name=" レイヤー 2" xmlns="http://www.w3.org/2000/svg" viewBox="0 0 88 78.49">
  <defs>
    <style>
      .cls-1 {
        fill: #fff;
      }
    </style>
  </defs>
  <g id="_レイヤー_1-2" data-name=" レイヤー 1-2">
    <g>
      <g>
        <path class="cls-1" d="M52.48,50.44c-.07,0-.13-.04-.2-.04-.58-.04-1.16-.04-1.74-.13-.8-.13-1.59-.22-2.35-.51-.51-.18-1.05-.36-1.52-.61-.42-.24-.8-.54-1.16-.87-.4-.36-.65-.85-.85-1.34-.24-.56-.34-1.14-.38-1.75,0-.34-.04-.69,0-1.01.04-.27.18-.54.29-.8.24-.52.61-.96,1.03-1.34.33-.29.67-.56,1.05-.8.54-.34,1.12-.65,1.66-.96.05-.04.11-.05.11-.07-.43-.2-.89-.42-1.34-.65-.29-.16-.56-.36-.8-.58-.2-.18-.38-.42-.54-.65-.42-.67-.61-1.43-.54-2.21.04-.47.16-.92.38-1.36.38-.72.89-1.36,1.5-1.9.38-.34.83-.65,1.25-.96.07-.05.16-.07.27-.13-.18-.14-.36-.29-.54-.42-.69-.52-1.23-1.16-1.61-1.93-.27-.54-.56-1.08-.69-1.66-.07-.34-.14-.71-.18-1.07-.05-.47-.11-.94-.14-1.41v-7.86c0-.69.14-1.39.22-2.08.05-.67.25-1.3.49-1.92.18-.51.47-.98.8-1.41.31-.4.65-.76,1.05-1.05.4-.31.87-.56,1.36-.74.6-.24,1.21-.36,1.83-.43.65-.07,1.34-.11,2.01-.04.8.09,1.55.27,2.3.61.83.38,1.45.96,2.06,1.59.13.13.24.29.38.47.14-.14.27-.29.4-.42.52-.56,1.14-1.03,1.79-1.45.47-.31.98-.52,1.5-.72.24-.09.51-.07.78-.11v4.84c-.33.04-.63.07-.94.09-.54.02-1.05.14-1.55.31-.2.05-.38.14-.56.24-.04,0-.07.09-.05.14.04.27.11.56.14.83.04.25.07.52.07.8v8.8c0,.58-.09,1.18-.2,1.75-.09.47-.22.92-.38,1.37-.24.67-.58,1.3-1.03,1.86-.38.47-.87.81-1.37,1.12-.47.29-.98.47-1.5.63-.34.11-.72.16-1.08.2-.69.05-1.37.09-2.06.07-.38,0-.61.07-.81.4-.18.31-.4.61-.38.99,0,.27.14.51.36.69.6.51,1.36.63,2.1.8.34.07.67.13,1.01.2.4.07.81.13,1.23.2.92.18,1.86.34,2.75.71.78.31,1.55.65,2.21,1.19.52.43.96.92,1.28,1.52.33.56.58,1.16.69,1.81.05.34.11.69.13,1.03.02.25,0,.51,0,.74.04.72-.11,1.43-.29,2.12-.22.87-.65,1.59-1.18,2.3-.63.85-1.46,1.43-2.39,1.88-.65.31-1.3.6-2.01.72-.65.13-1.3.22-1.97.31-.29.04-.58.04-.87.04-.05,0-.11.02-.18.04h-1.03l-.04-.05-.03.03ZM54.13,21.53v-4c0-.51,0-1.01-.11-1.5-.13-.52-.38-.96-.92-1.12-.38-.13-.76-.13-1.16-.04-.51.13-.76.49-.9.9-.14.45-.18.94-.18,1.41v9.18c0,.4.07.8.27,1.16.18.34.47.6.85.69.2.05.43,0,.65.02.51.04.87-.24,1.14-.61.27-.38.33-.83.34-1.27.02-1.61,0-3.22,0-4.83h.02ZM49.57,43.77c-.04.38.11.71.33.98.31.4.74.69,1.23.81.45.13.94.22,1.43.24.69.02,1.39,0,2.06-.07.69-.09,1.36-.29,1.95-.69.22-.14.45-.34.58-.58.27-.47.24-.99.02-1.46-.16-.4-.54-.6-.92-.76-.51-.22-1.03-.33-1.55-.43-.92-.18-1.83-.38-2.75-.56-.18-.04-.34-.09-.52.02-.52.34-1.03.71-1.41,1.23-.29.4-.4.83-.43,1.28h-.02Z"/>
        <path class="cls-1" d="M15.93,44.31c.13-.34.24-.69.38-1.01.09-.22.24-.43.4-.61.33-.34.63-.71,1.01-.99.47-.36.98-.65,1.48-.98.31-.18.63-.34.94-.51-.54-.2-1.1-.38-1.59-.74-.47-.34-.87-.72-1.16-1.21-.18-.29-.31-.63-.38-.98-.09-.36-.13-.74-.13-1.1,0-.51.16-.98.42-1.43.29-.52.63-.99,1.05-1.41.31-.31.65-.6.98-.89.22-.18.43-.34.67-.49.09-.05.18-.09.29-.14-.25-.22-.49-.43-.74-.61-.4-.31-.71-.71-1.01-1.1-.52-.71-.83-1.5-1.07-2.33-.13-.47-.2-.96-.24-1.45-.05-.67-.07-1.34-.07-2.01,0-2.28-.02-4.54,0-6.82,0-.85.05-1.7.24-2.53.18-.8.45-1.55.81-2.28.29-.56.72-.99,1.18-1.41.33-.31.67-.52,1.05-.72.33-.16.65-.31.99-.42.6-.2,1.21-.33,1.84-.33.18,0,.36-.02.54-.04.69-.04,1.37.04,2.04.2.72.16,1.41.45,2.02.85.6.36,1.07.89,1.5,1.43.05.07.13.14.16.2.25-.24.49-.47.72-.69.31-.25.6-.51.92-.76.27-.22.52-.42.81-.6.27-.16.56-.31.85-.42.34-.13.72-.18,1.08-.27h.11v4.88c-1.1.09-2.21.14-3.16.67.07.33.18.63.18.94.02,3.27.05,6.54.04,9.83,0,1.45-.36,2.82-1.1,4.07-.25.43-.6.81-.99,1.16-.4.38-.87.65-1.36.87-.54.25-1.1.43-1.72.52-.89.14-1.77.14-2.64.14-.07,0-.14-.02-.27-.04-.14.2-.34.4-.49.61-.31.47-.38.98.04,1.43.27.33.69.45,1.07.58.25.09.52.16.8.22.38.07.78.14,1.16.2.18.04.34.05.52.07.72.14,1.46.27,2.19.42.92.2,1.81.54,2.64.98.65.33,1.19.8,1.66,1.34.34.38.63.8.85,1.25.29.61.51,1.27.52,1.95,0,.45.07.9.07,1.34-.04.92-.14,1.83-.51,2.68-.25.63-.63,1.19-1.08,1.72-.74.87-1.66,1.46-2.69,1.93-.56.25-1.16.47-1.77.54-.47.07-.92.2-1.37.25-.42.05-.83.05-1.25.07-.07,0-.13.02-.2.04h-1.07c-.2-.02-.4-.05-.58-.07-.58-.05-1.16-.09-1.74-.16-.43-.05-.89-.13-1.3-.25-.6-.18-1.19-.34-1.74-.61-.8-.4-1.5-.89-2.01-1.63-.42-.63-.71-1.32-.74-2.1,0-.16-.05-.34-.07-.51v-.8h0v.05l.02.02ZM25.76,21.53v-4.81c0-.22-.02-.45-.07-.67-.13-.49-.34-.9-.83-1.12-.33-.14-.67-.18-1.01-.13-.34.04-.65.18-.87.47-.31.43-.45.92-.45,1.45v9.44c0,.18,0,.36.04.54.09.4.14.8.45,1.1.25.25.52.47.92.43.14,0,.31.02.43,0,.2-.04.42-.07.6-.18.54-.34.78-.89.8-1.5v-5.03h-.01ZM24.84,45.84c.52-.05,1.05-.07,1.55-.16.4-.07.8-.18,1.16-.33.31-.13.61-.31.89-.51.52-.38.6-.94.49-1.54-.04-.16-.09-.33-.16-.45-.29-.45-.78-.65-1.25-.8-.47-.14-.96-.22-1.45-.33-.76-.16-1.52-.33-2.28-.49-.31-.07-.61-.11-.9.11-.63.47-1.23.92-1.52,1.68-.22.56-.18,1.1.14,1.61.31.49.8.76,1.32.92.65.18,1.32.27,2.02.27h-.02v.02Z"/>
        <path class="cls-1" d="M41.74,39.79h-5.46V10.18h5.46v29.59h0v.02Z"/>
        <path class="cls-1" d="M70.07,39.79h-5.44V10.18h5.44v29.61Z"/>
        <path class="cls-1" d="M41.76,0v5.41h-5.44V0h5.44Z"/>
        <path class="cls-1" d="M64.63,5.41V0h5.44v5.41h-5.44Z"/>
      </g>
      <g>
        <path class="cls-1" d="M27.26,67.12v-.55c0-.68-.42-1.06-1.12-1.06h-2.06v2.68h2.06c.7-.01,1.12-.39,1.12-1.07Z"/>
        <path class="cls-1" d="M73.15,67.12v-.55c0-.68-.42-1.06-1.12-1.06h-2.06v2.68h2.06c.7-.01,1.12-.39,1.12-1.07Z"/>
        <path class="cls-1" d="M0,58.49v20h88v-20H0ZM9.36,65.51h-3.53v2.49h3.22v.79h-3.22v3.36h-.89v-7.43h4.42v.79ZM18.93,69.09c0,2.16-.72,3.17-2.7,3.17s-2.64-1.01-2.64-3.17v-4.38s.89,0,.89,0v4.59c0,1.42.46,2.16,1.78,2.16s1.78-.74,1.78-2.16v-4.59h.89v4.38ZM27.42,72.15l-1.61-3.19h-1.73v3.18h-.89v-7.42h2.96c1.3,0,2.07.76,2.07,2.11,0,1.08-.52,1.82-1.49,2.04l1.7,3.28h-1.01ZM38.08,72.14h-1.03l-2.71-4.53-.89-1.65h-.03v6.18h-.87v-7.42h1.03l2.71,4.53.89,1.65h.03v-6.18h.87v7.42ZM45.45,65.47h-1.04v5.93h1.04v.74h-2.98v-.74h1.04v-5.93h-1.04v-.75h2.98v.75ZM55.34,65.5h-2.37v6.64h-.89v-6.64h-2.36v-.79h5.62v.79ZM64.82,69.09c0,2.16-.72,3.17-2.7,3.17s-2.64-1.01-2.64-3.17v-4.38s.89,0,.89,0v4.59c0,1.42.46,2.16,1.78,2.16s1.78-.74,1.78-2.16v-4.59h.89v4.38ZM73.31,72.15l-1.61-3.19h-1.73v3.18h0,0s0,0,0,0h-.89v-7.42h2.96c1.3,0,2.07.76,2.07,2.11,0,1.08-.52,1.82-1.49,2.04l1.7,3.28h-1.01ZM83.07,65.51h-3.64v2.49h3.42v.79h-3.42v2.57h3.64v.79h-4.53v-7.43h4.53v.79Z"/>
      </g>
    </g>
  </g>
</svg>